<svg width="336" height="429" viewBox="0 0 336 429" fill="none" xmlns="http://www.w3.org/2000/svg">
<path d="M283.632 93.3508L335.491 0H238.248L209.358 51.9998C196.023 48.5863 182.057 46.7743 167.663 46.7743C75.0647 46.7807 0 121.845 0 214.443C0 262.092 19.8811 305.095 51.7892 335.631L0.165889 428.548H97.4087L126.095 376.912C139.385 380.3 153.313 382.106 167.663 382.106C260.261 382.106 335.325 307.041 335.325 214.443C335.325 166.84 315.489 123.874 283.632 93.3508ZM167.184 315.208C164.938 315.208 162.711 315.131 160.497 314.985L198.008 247.468H100.765L85.8666 274.284C73.3484 257.434 65.9344 236.558 65.9344 213.958C65.9344 158.041 111.267 112.709 167.184 112.709C169.96 112.709 172.716 112.824 175.44 113.047L137.649 181.068H234.892L249.427 154.908C261.383 171.529 268.427 191.921 268.427 213.958C268.427 269.869 223.095 315.202 167.184 315.202V315.208Z" fill="white"/>
</svg>
